<svg width="35" height="39" viewBox="0 0 35 39" fill="none" xmlns="http://www.w3.org/2000/svg">
<path fill-rule="evenodd" clip-rule="evenodd" d="M3.69201 31.0778C0.559463 27.6089 -0.296534 23.2204 0.0845883 19.2999C0.504435 14.975 2.46304 10.8266 5.01269 8.68576C8.42037 5.82646 11.9993 4.65236 15.1053 4.07763C16.6178 3.81623 18.1411 3.62241 19.6706 3.49674C20.494 3.41874 21.3276 3.34074 22.1286 3.13958C23.8161 2.71469 25.4812 2.02501 26.8529 0.928911C27.4806 0.42602 28.1165 -0.0830298 28.9623 0.0113906C29.2663 0.0454566 29.5589 0.148019 29.8182 0.311472C30.0775 0.474925 30.297 0.695075 30.4603 0.955596C36.9822 11.3562 35.9978 22.3973 30.5499 29.3515C27.8291 32.8225 24.0077 35.2446 19.5504 35.961C15.6617 36.5829 11.4123 35.8871 7.13026 33.6292C6.75409 34.807 6.47461 36.0138 6.29465 37.2377C6.21816 37.7766 5.93223 38.2629 5.49975 38.5895C5.06727 38.9162 4.52368 39.0564 3.98855 38.9793C3.45342 38.9023 2.97059 38.6143 2.64628 38.1788C2.32197 37.7432 2.18274 37.1957 2.25923 36.6568C2.51195 34.8813 2.99294 32.9908 3.69201 31.0778ZM15.839 8.11513C17.2738 7.85034 18.621 7.72308 19.9295 7.59377C20.9974 7.49113 22.0735 7.3844 23.117 7.12166C24.8747 6.68882 26.5579 5.99275 28.1104 5.05673C32.5493 13.5074 31.3102 21.7527 27.3501 26.8104C25.2142 29.5363 22.2773 31.3672 18.9125 31.905C15.89 32.3894 12.3906 31.8557 8.66087 29.799C10.9272 25.1457 14.6325 20.6854 19.4566 18.2571C19.9404 18.0138 20.3084 17.5869 20.4796 17.0703C20.6509 16.5537 20.6113 15.9897 20.3697 15.5025C20.1281 15.0153 19.7042 14.6447 19.1912 14.4722C18.6783 14.2998 18.1184 14.3396 17.6346 14.5829C12.3192 17.2595 8.24714 21.8882 5.59966 26.8248C4.29324 24.6695 3.90193 22.1633 4.14242 19.6981C4.48686 16.1511 6.09899 13.1194 7.62144 11.8386C10.328 9.56633 13.1814 8.60776 15.8411 8.11513H15.839Z" fill="#343434"/>
</svg>
