<svg width="42" height="42" viewBox="0 0 42 42" fill="none" xmlns="http://www.w3.org/2000/svg">
<path d="M22.9762 0.00256332C24.4965 -0.00327047 26.0168 0.0120089 27.5366 0.0483968L27.9408 0.0629801C28.4075 0.0796468 28.8679 0.10048 29.4241 0.12548C31.6408 0.229647 33.1533 0.579647 34.4804 1.09423C35.8554 1.6234 37.0137 2.34006 38.172 3.4984C39.2311 4.53924 40.0508 5.79829 40.5741 7.18798C41.0887 8.51506 41.4387 10.0296 41.5429 12.2463C41.5679 12.8005 41.5887 13.263 41.6054 13.7296L41.6179 14.1338C41.6549 15.653 41.6709 17.1726 41.6658 18.6921L41.6679 20.2463V22.9755C41.673 24.4958 41.657 26.0161 41.6199 27.5359L41.6075 27.9401C41.5908 28.4067 41.57 28.8671 41.545 29.4234C41.4408 31.6401 41.0866 33.1526 40.5741 34.4796C40.0526 35.8708 39.2327 37.1309 38.172 38.1713C37.1303 39.2303 35.8706 40.05 34.4804 40.5734C33.1533 41.088 31.6408 41.438 29.4241 41.5422C28.8679 41.5672 28.4075 41.588 27.9408 41.6046L27.5366 41.6171C26.0168 41.6542 24.4965 41.6702 22.9762 41.6651L21.422 41.6672H18.695C17.1747 41.6723 15.6544 41.6563 14.1345 41.6192L13.7304 41.6067C13.2358 41.5888 12.7414 41.568 12.247 41.5442C10.0304 41.4401 8.51787 41.0859 7.1887 40.5734C5.79846 40.0512 4.5392 39.2314 3.49912 38.1713C2.4388 37.1302 1.61834 35.8704 1.09495 34.4796C0.580369 33.1526 0.230369 31.6401 0.126202 29.4234C0.103 28.9291 0.0821662 28.4346 0.063702 27.9401L0.0532856 27.5359C0.0148764 26.0161 -0.00248656 24.4958 0.00120208 22.9755V18.6921C-0.00461243 17.1726 0.010667 15.653 0.0470356 14.1338L0.0616188 13.7296C0.0782855 13.263 0.0991188 12.8005 0.124119 12.2463C0.228285 10.0276 0.578285 8.51715 1.09287 7.18798C1.61656 5.79761 2.43863 4.53891 3.5012 3.50048C4.54057 2.43955 5.79904 1.61834 7.1887 1.09423C8.51787 0.579647 10.0283 0.229647 12.247 0.12548L13.7304 0.0629801L14.1345 0.0525637C15.6537 0.0141737 17.1733 -0.00318927 18.6929 0.000480142L22.9762 0.00256332ZM20.8345 10.4192C19.4543 10.3997 18.084 10.6547 16.8032 11.1694C15.5224 11.684 14.3567 12.4481 13.3738 13.4173C12.3909 14.3864 11.6104 15.5412 11.0776 16.8146C10.5449 18.088 10.2706 19.4545 10.2706 20.8349C10.2706 22.2152 10.5449 23.5818 11.0776 24.8551C11.6104 26.1285 12.3909 27.2833 13.3738 28.2525C14.3567 29.2216 15.5224 29.9857 16.8032 30.5003C18.084 31.015 19.4543 31.27 20.8345 31.2505C23.5972 31.2505 26.2467 30.153 28.2002 28.1995C30.1537 26.246 31.2512 23.5965 31.2512 20.8338C31.2512 18.0711 30.1537 15.4216 28.2002 13.4681C26.2467 11.5146 23.5972 10.4192 20.8345 10.4192ZM20.8345 14.5859C21.6648 14.5706 22.4897 14.7209 23.2612 15.028C24.0327 15.3351 24.7352 15.7929 25.3278 16.3745C25.9204 16.9562 26.3911 17.6501 26.7125 18.4158C27.0339 19.1814 27.1995 20.0034 27.1997 20.8338C27.1998 21.6642 27.0345 22.4862 26.7133 23.252C26.3922 24.0177 25.9217 24.7118 25.3293 25.2937C24.7369 25.8756 24.0345 26.3335 23.2631 26.6409C22.4917 26.9483 21.6668 27.0988 20.8366 27.0838C19.179 27.0838 17.5893 26.4253 16.4172 25.2532C15.2451 24.0811 14.5866 22.4914 14.5866 20.8338C14.5866 19.1762 15.2451 17.5865 16.4172 16.4144C17.5893 15.2423 19.179 14.5838 20.8366 14.5838L20.8345 14.5859ZM31.772 7.29423C31.0999 7.32113 30.4643 7.60704 29.9983 8.09209C29.5323 8.57713 29.272 9.22368 29.272 9.89631C29.272 10.569 29.5323 11.2155 29.9983 11.7005C30.4643 12.1856 31.0999 12.4715 31.772 12.4984C32.4627 12.4984 33.1251 12.224 33.6135 11.7357C34.1018 11.2473 34.3762 10.5849 34.3762 9.89423C34.3762 9.20356 34.1018 8.54118 33.6135 8.05281C33.1251 7.56443 32.4627 7.29006 31.772 7.29006V7.29423Z" fill="#343434"/>
</svg>
