<svg width="29" height="29" viewBox="0 0 29 29" fill="none" xmlns="http://www.w3.org/2000/svg">
<path d="M20.977 18.7024H19.6514L19.1816 18.2434C20.2302 17.0092 20.9966 15.5554 21.4259 13.986C21.8553 12.4166 21.9369 10.7705 21.665 9.16545C20.8763 4.43945 16.9834 0.665447 12.2851 0.0874474C10.6334 -0.124261 8.95569 0.0496592 7.38047 0.595899C5.80526 1.14214 4.37426 2.04622 3.19698 3.23896C2.0197 4.4317 1.12733 5.88149 0.588175 7.47739C0.0490156 9.07329 -0.12265 10.773 0.086314 12.4464C0.656822 17.2064 4.38191 21.1504 9.04665 21.9494C10.6309 22.2249 12.2557 22.1422 13.8047 21.7073C15.3537 21.2723 16.7887 20.4959 18.007 19.4334L18.46 19.9094V21.2524L25.5914 28.4774C26.2794 29.1744 27.4036 29.1744 28.0916 28.4774C28.7795 27.7804 28.7795 26.6414 28.0916 25.9444L20.977 18.7024ZM10.9092 18.7024C6.73106 18.7024 3.35835 15.2854 3.35835 11.0524C3.35835 6.81945 6.73106 3.40245 10.9092 3.40245C15.0873 3.40245 18.46 6.81945 18.46 11.0524C18.46 15.2854 15.0873 18.7024 10.9092 18.7024Z" fill="#343434"/>
</svg>
