<svg width="14" height="8" viewBox="0 0 14 8" fill="none" xmlns="http://www.w3.org/2000/svg">
<path fill-rule="evenodd" clip-rule="evenodd" d="M6.43771 0.425599C6.62524 0.238128 6.87955 0.132812 7.14471 0.132812C7.40988 0.132812 7.66418 0.238128 7.85171 0.425599L13.5087 6.0826C13.6909 6.2712 13.7917 6.5238 13.7894 6.786C13.7871 7.0482 13.6819 7.29901 13.4965 7.48442C13.3111 7.66983 13.0603 7.77499 12.7981 7.77727C12.5359 7.77955 12.2833 7.67876 12.0947 7.4966L7.14471 2.5466L2.19471 7.4966C2.00611 7.67876 1.75351 7.77955 1.49131 7.77727C1.22911 7.77499 0.978301 7.66983 0.792893 7.48442C0.607485 7.29901 0.502316 7.0482 0.500038 6.786C0.497759 6.5238 0.598554 6.2712 0.780712 6.0826L6.43771 0.425599Z" fill="black"/>
</svg>
